<?xml version="1.0" encoding="utf-8"?>
<svg width="461px" height="96px" viewBox="0 0 461 96" version="1.1" xmlns:xlink="http://www.w3.org/1999/xlink" xmlns="http://www.w3.org/2000/svg">
  <g id="Logo-2" fill-opacity="1">
    <path d="M96 0L96 0L96 96L0 96L0 0L96 0Z" id="Logo-2" fill="none" stroke="none" />
    <path d="M51.9995 2.30911L85.5697 21.6909Q85.7965 21.8218 86.0142 21.9673Q86.232 22.1128 86.4397 22.2722Q86.6475 22.4316 86.8443 22.6043Q87.0412 22.7769 87.2264 22.9621Q87.4115 23.1472 87.5842 23.3441Q87.7569 23.541 87.9163 23.7487Q88.0757 23.9565 88.2212 24.1742Q88.3666 24.3919 88.4976 24.6187Q88.6285 24.8455 88.7443 25.0804Q88.8601 25.3152 88.9603 25.5571Q89.0605 25.7991 89.1447 26.047Q89.2289 26.295 89.2967 26.5479Q89.3644 26.8009 89.4155 27.0577Q89.4666 27.3145 89.5008 27.5741Q89.535 27.8338 89.5521 28.0951Q89.5692 28.3564 89.5692 28.6182L89.5692 67.3818Q89.5692 67.6436 89.5521 67.9049Q89.535 68.1662 89.5008 68.4259Q89.4666 68.6855 89.4155 68.9423Q89.3644 69.1991 89.2967 69.4521Q89.2289 69.705 89.1447 69.953Q89.0606 70.2009 88.9603 70.4429Q88.8601 70.6848 88.7443 70.9196Q88.6285 71.1545 88.4976 71.3813Q88.3666 71.6081 88.2212 71.8258Q88.0757 72.0435 87.9163 72.2513Q87.7569 72.459 87.5842 72.6559Q87.4115 72.8528 87.2264 73.0379Q87.0412 73.2231 86.8443 73.3957Q86.6475 73.5684 86.4397 73.7278Q86.232 73.8872 86.0142 74.0327Q85.7965 74.1782 85.5697 74.3091L51.9995 93.6909Q51.7727 93.8218 51.5379 93.9376Q51.303 94.0535 51.0611 94.1537Q50.8192 94.2539 50.5712 94.338Q50.3232 94.4222 50.0703 94.49Q49.8174 94.5578 49.5605 94.6089Q49.3037 94.6599 49.0441 94.6941Q48.7845 94.7283 48.5232 94.7454Q48.2619 94.7626 48 94.7626Q47.7381 94.7626 47.4768 94.7454Q47.2155 94.7283 46.9559 94.6941Q46.6963 94.6599 46.4395 94.6088Q46.1826 94.5578 45.9297 94.49Q45.6768 94.4222 45.4288 94.338Q45.1808 94.2539 44.9389 94.1537Q44.697 94.0535 44.4621 93.9376Q44.2273 93.8218 44.0005 93.6909L10.4303 74.3091Q10.2035 74.1782 9.98577 74.0327Q9.76804 73.8872 9.5603 73.7278Q9.35255 73.5684 9.15567 73.3957Q8.9588 73.2231 8.77363 73.0379Q8.58847 72.8528 8.41581 72.6559Q8.24316 72.459 8.08375 72.2513Q7.92434 72.0435 7.77885 71.8258Q7.63337 71.608 7.50244 71.3813Q7.37151 71.1545 7.25569 70.9196Q7.13988 70.6848 7.03967 70.4429Q6.93946 70.2009 6.85529 69.953Q6.77111 69.705 6.70334 69.4521Q6.63556 69.1991 6.58448 68.9423Q6.53339 68.6855 6.49921 68.4258Q6.46503 68.1662 6.44791 67.9049Q6.43078 67.6436 6.43078 67.3818L6.43078 28.6182Q6.43078 28.3564 6.44791 28.0951Q6.46503 27.8338 6.49921 27.5742Q6.53339 27.3145 6.58448 27.0577Q6.63556 26.8009 6.70334 26.5479Q6.77111 26.295 6.85529 26.047Q6.93946 25.7991 7.03967 25.5571Q7.13988 25.3152 7.25569 25.0804Q7.37151 24.8455 7.50244 24.6187Q7.63337 24.392 7.77885 24.1742Q7.92434 23.9565 8.08375 23.7488Q8.24316 23.541 8.41581 23.3441Q8.58847 23.1473 8.77363 22.9621Q8.9588 22.7769 9.15567 22.6043Q9.35255 22.4316 9.5603 22.2722Q9.76804 22.1128 9.98577 21.9673Q10.2035 21.8218 10.4303 21.6909L44.0005 2.30911Q44.2273 2.17818 44.4621 2.06236Q44.697 1.94655 44.9389 1.84634Q45.1808 1.74613 45.4288 1.66196Q45.6768 1.57778 45.9297 1.51001Q46.1827 1.44223 46.4395 1.39115Q46.6963 1.34006 46.9559 1.30588Q47.2155 1.2717 47.4768 1.25458Q47.7381 1.23745 48 1.23745Q48.2619 1.23745 48.5232 1.25458Q48.7845 1.2717 49.0441 1.30588Q49.3037 1.34006 49.5605 1.39115Q49.8174 1.44223 50.0703 1.51001Q50.3232 1.57778 50.5712 1.66196Q50.8192 1.74613 51.0611 1.84634Q51.303 1.94655 51.5379 2.06236Q51.7727 2.17818 51.9995 2.30911L51.9995 2.30911Z" id="Polygon" fill="#1976D2" fill-rule="evenodd" stroke="none" />
    <path d="M57.3423 21.7763L89.6354 41.105L89.6354 65.5028L22.8066 31.2379L22.8071 31.237Q23.1051 30.6873 23.4303 30.1533Q23.7556 29.6193 24.1074 29.1024Q24.4591 28.5855 24.8365 28.087Q25.2139 27.5884 25.6159 27.1095Q26.0179 26.6306 26.4436 26.1726Q26.8692 25.7146 27.3174 25.2786Q27.7656 24.8427 28.2352 24.4298Q28.7048 24.017 29.1946 23.6283Q29.6844 23.2397 30.1931 22.8762Q30.7019 22.5128 31.2284 22.1754Q31.7548 21.838 32.2976 21.5276Q32.8403 21.2172 33.3981 20.9346Q33.9558 20.6519 34.5271 20.3977Q35.0983 20.1436 35.6817 19.9185Q36.265 19.6934 36.859 19.498Q37.4529 19.3027 38.056 19.1375Q38.659 18.9723 39.2696 18.8377Q39.8802 18.7031 40.4968 18.5994Q41.1134 18.4958 41.7345 18.4233Q42.3555 18.3509 42.9794 18.3098Q43.6033 18.2688 44.2285 18.2592Q44.8537 18.2497 45.4786 18.2716Q46.1035 18.2936 46.7264 18.347Q47.3494 18.4004 47.9689 18.4852Q48.5884 18.57 49.2028 18.6858Q49.8173 18.8017 50.4251 18.9484Q51.0329 19.0951 51.6325 19.2723Q52.2322 19.4494 52.8221 19.6565Q53.4121 19.8637 53.9908 20.1003Q54.5696 20.3369 55.1357 20.6024Q55.7018 20.8678 56.2538 21.1615Q56.8058 21.4552 57.3423 21.7763Z" id="Rectangle-7" fill="#FFFFFF" fill-rule="evenodd" stroke="none" />
    <path d="M54.9414 26.3995L89.6354 46.6741L89.6354 69.2155L25.989 33.547L25.9895 33.5462Q26.2624 33.1087 26.5562 32.685Q26.8499 32.2612 27.1637 31.8521Q27.4775 31.4429 27.8106 31.0494Q28.1438 30.6558 28.4955 30.2788Q28.8472 29.9018 29.2166 29.5421Q29.5861 29.1824 29.9724 28.841Q30.3588 28.4995 30.7611 28.177Q31.1634 27.8546 31.5809 27.5519Q31.9983 27.2492 32.4298 26.9669Q32.8613 26.6847 33.3059 26.4235Q33.7504 26.1624 34.2071 25.923Q34.6637 25.6836 35.1314 25.4664Q35.5991 25.2492 36.0766 25.0549Q36.5542 24.8605 37.0406 24.6893Q37.5269 24.5182 38.021 24.3706Q38.5151 24.2231 39.0156 24.0995Q39.5162 23.976 40.0222 23.8767Q40.5281 23.7773 41.0383 23.7025Q41.5484 23.6277 42.0616 23.5775Q42.5748 23.5273 43.0898 23.5019Q43.6047 23.4765 44.1204 23.4759Q44.636 23.4754 45.151 23.4996Q45.6661 23.5239 46.1793 23.5729Q46.6926 23.622 47.2029 23.6957Q47.7132 23.7694 48.2194 23.8675Q48.7256 23.9657 49.2265 24.0882Q49.7273 24.2106 50.2217 24.3571Q50.7161 24.5035 51.2028 24.6736Q51.6896 24.8436 52.1676 25.037Q52.6456 25.2303 53.1137 25.4464Q53.5819 25.6625 54.039 25.9009Q54.4962 26.1393 54.9414 26.3995Z" id="Rectangle-3" fill="#FFF001" fill-rule="evenodd" stroke="none" />
    <path d="M38.6585 74.49L6.36462 55.1608L6.36464 30.7624L73.195 65.0281L73.1945 65.029Q72.8966 65.5788 72.5713 66.1128Q72.246 66.6468 71.8943 67.1637Q71.5425 67.6806 71.1651 68.1792Q70.7877 68.6777 70.3857 69.1566Q69.9836 69.6355 69.558 70.0936Q69.1323 70.5516 68.6841 70.9876Q68.2359 71.4236 67.7663 71.8364Q67.2967 72.2493 66.8069 72.6379Q66.3171 73.0266 65.8083 73.39Q65.2995 73.7535 64.7731 74.0909Q64.2466 74.4283 63.7039 74.7387Q63.1611 75.0491 62.6033 75.3317Q62.0456 75.6144 61.4743 75.8686Q60.903 76.1228 60.3197 76.3479Q59.7363 76.5729 59.1423 76.7683Q58.5484 76.9637 57.9453 77.1289Q57.3423 77.2941 56.7316 77.4287Q56.121 77.5633 55.5044 77.667Q54.8878 77.7706 54.2667 77.8431Q53.6456 77.9155 53.0217 77.9566Q52.3978 77.9976 51.7726 78.0072Q51.1474 78.0167 50.5225 77.9948Q49.8976 77.9728 49.2746 77.9194Q48.6516 77.8659 48.0321 77.7812Q47.4126 77.6964 46.7982 77.5805Q46.1837 77.4647 45.5759 77.318Q44.9681 77.1713 44.3684 76.9941Q43.7688 76.817 43.1788 76.6098Q42.5888 76.4027 42.01 76.1661Q41.4313 75.9295 40.8652 75.664Q40.299 75.3985 39.747 75.1048Q39.195 74.8111 38.6585 74.49L38.6585 74.49Z" id="Rectangle-6" fill="#FFFFFF" fill-rule="evenodd" stroke="none" />
    <path d="M41.0595 69.8667L6.36464 49.5917L6.36464 27.0497L70.0126 62.7191L70.0121 62.7199Q69.7391 63.1573 69.4454 63.5811Q69.1517 64.0049 68.8379 64.414Q68.5241 64.8232 68.1909 65.2167Q67.8578 65.6103 67.5061 65.9873Q67.1544 66.3644 66.7849 66.7241Q66.4154 67.0837 66.0291 67.4252Q65.6427 67.7667 65.2404 68.0891Q64.838 68.4116 64.4206 68.7143Q64.0032 69.017 63.5717 69.2993Q63.1402 69.5815 62.6956 69.8427Q62.251 70.1038 61.7943 70.3433Q61.3376 70.5827 60.87 70.7998Q60.4023 71.017 59.9247 71.2114Q59.4471 71.4058 58.9607 71.5769Q58.4744 71.7481 57.9803 71.8956Q57.4862 72.0432 56.9856 72.1667Q56.485 72.2903 55.9791 72.3896Q55.4731 72.4889 54.9629 72.5638Q54.4528 72.6386 53.9396 72.6888Q53.4264 72.739 52.9114 72.7644Q52.3964 72.7898 51.8808 72.7904Q51.3651 72.7909 50.8501 72.7667Q50.335 72.7424 49.8217 72.6934Q49.3085 72.6443 48.7981 72.5706Q48.2878 72.4969 47.7816 72.3988Q47.2754 72.3006 46.7745 72.1781Q46.2737 72.0556 45.7793 71.9092Q45.2849 71.7628 44.7981 71.5927Q44.3113 71.4226 43.8333 71.2293Q43.3553 71.036 42.8872 70.8198Q42.419 70.6037 41.9618 70.3653Q41.5046 70.1269 41.0595 69.8667Z" id="Rectangle-4" fill="#FFF001" fill-rule="evenodd" stroke="none" />
    <path d="M6.36468 27.0498C6.36468 27.0498 6.35885 26.8458 6.36468 25.1934C6.37051 23.541 8.4959 22.7836 8.4959 22.7836L89.5586 69.0784C89.5586 69.0784 89.9819 70.1405 89.6382 71.3385C89.2945 72.5364 87.1047 73.4282 87.1047 73.4282L6.36468 27.0498Z" id="Rectangle-5" fill="#FFFFFF" fill-rule="evenodd" stroke="none" />
  </g>
  <g id="TaskBlitz-2" transform="translate(132 9)">
    <g id="TaskBlitz" fill="#1B1B1E">
      <path d="M2.25 27.6648L2.25 17.3864L46.5085 17.3864L46.5085 27.6648L30.6307 27.6648L30.6307 69.75L18.1534 69.75L18.1534 27.6648L2.25 27.6648ZM58.4744 70.4148Q52.8494 70.4148 49.206 67.5511Q45.5625 64.6875 45.5625 58.858Q45.5625 54.5114 47.5568 51.9418Q49.5511 49.3722 52.875 48.1321Q56.1989 46.892 60.1619 46.5597Q65.1989 46.125 67.3338 45.4858Q69.4688 44.8466 69.4688 43.0568L69.4688 42.929Q69.4688 40.9602 68.1136 39.8864Q66.7585 38.8125 64.4574 38.8125Q61.9773 38.8125 60.4688 39.8864Q58.9602 40.9602 58.5511 42.8523L47.0199 42.4432Q47.7614 37.0739 52.1974 33.5199Q56.6335 29.9659 64.5597 29.9659Q69.571 29.9659 73.4957 31.5128Q77.4205 33.0597 79.6832 35.9744Q81.946 38.8892 81.946 43.0568L81.946 69.75L70.1847 69.75L70.1847 64.2784L69.8778 64.2784Q66.6051 70.4148 58.4744 70.4148ZM62.3352 62.233Q65.3267 62.233 67.4361 60.4432Q69.5455 58.6534 69.5455 55.7898L69.5455 52.0568Q68.4972 52.6193 66.5923 53.0028Q64.6875 53.3864 62.9489 53.642Q57.4006 54.4858 57.4006 58.2443Q57.4006 60.1875 58.7813 61.2102Q60.1619 62.233 62.3352 62.233ZM123.852 42.4688L112.372 42.7756Q112.116 40.9091 110.506 39.7202Q108.895 38.5313 106.415 38.5313Q104.241 38.5313 102.72 39.3878Q101.199 40.2443 101.224 41.7528Q101.199 42.8778 102.158 43.7344Q103.116 44.5909 105.597 45.1023L113.165 46.5341Q124.747 48.7585 124.824 57.1705Q124.798 61.2102 122.433 64.2017Q120.068 67.1932 115.977 68.8423Q111.886 70.4915 106.619 70.4915Q98.2074 70.4915 93.3494 67.027Q88.4915 63.5625 87.8267 57.733L100.176 57.4261Q100.585 59.5739 102.298 60.6989Q104.011 61.8239 106.67 61.8239Q109.074 61.8239 110.582 60.929Q112.091 60.0341 112.116 58.5511Q112.04 56.071 107.335 55.1506L100.483 53.8466Q88.7472 51.6733 88.8239 42.4688Q88.7983 36.5625 93.5028 33.2642Q98.2074 29.9659 106.185 29.9659Q114.162 29.9659 118.764 33.3026Q123.366 36.6392 123.852 42.4688ZM130.96 69.75L130.96 17.3864L143.463 17.3864L143.463 44.5398L144.026 44.5398L155.071 30.4773L169.236 30.4773L155.301 47.5824L169.798 69.75L155.352 69.75L145.994 54.8949L143.463 57.9631L143.463 69.75L130.96 69.75ZM173.736 69.75L173.736 17.3864L195.571 17.3864Q204.392 17.3864 208.905 21.0426Q213.418 24.6989 213.418 30.6307Q213.418 35.1051 210.682 38.0966Q207.946 41.0881 203.625 41.983L203.625 42.4943Q206.795 42.6222 209.493 44.1946Q212.19 45.767 213.827 48.5412Q215.463 51.3153 215.463 55.0994Q215.463 59.3182 213.315 62.6293Q211.168 65.9403 207.102 67.8452C204.392 69.1151 201.102 69.75 197.233 69.75L173.736 69.75ZM186.392 59.5483L194.216 59.5483Q198.332 59.5483 200.288 57.9886Q202.244 56.429 202.244 53.642Q202.244 50.625 200.161 48.848Q198.077 47.071 194.446 47.071L186.392 47.071L186.392 59.5483ZM186.392 38.9148L193.398 38.9148Q196.517 38.9148 198.511 37.3807Q200.506 35.8466 200.506 33.0852Q200.506 30.4773 198.639 28.956Q196.773 27.4347 193.602 27.4347L186.392 27.4347L186.392 38.9148ZM234.051 17.3864L234.051 69.75L221.548 69.75L221.548 17.3864L234.051 17.3864ZM241.977 69.75L241.977 30.4773L254.48 30.4773L254.48 69.75L241.977 69.75ZM248.242 25.9006Q245.608 25.9006 243.716 24.1491Q241.824 22.3977 241.824 19.9176Q241.824 17.4375 243.716 15.6989Q245.608 13.9602 248.242 13.9602Q250.901 13.9602 252.78 15.6989Q254.659 17.4375 254.659 19.9176Q254.659 22.3977 252.78 24.1491Q250.901 25.9006 248.242 25.9006ZM284.574 30.4773L284.574 39.6818L277.492 39.6818L277.492 57.4006Q277.492 59.1392 278.322 59.8423Q279.153 60.5455 280.662 60.5455Q281.378 60.5455 282.183 60.4048Q282.989 60.2642 283.398 60.1619L285.29 69.1875Q284.395 69.4432 282.784 69.8139Q281.173 70.1847 278.898 70.3125Q272.276 70.6193 268.607 67.679Q264.938 64.7386 264.989 58.7813L264.989 39.6818L259.798 39.6818L259.798 30.4773L264.989 30.4773L264.989 21.0682L277.492 21.0682L277.492 30.4773L284.574 30.4773ZM291.068 69.75L291.068 62.6165L309.273 40.4489L309.273 40.1932L291.707 40.1932L291.707 30.4773L324.179 30.4773L324.179 38.3011L307.304 59.7784L307.304 60.0341L324.793 60.0341L324.793 69.75L291.068 69.75Z" />
    </g>
  </g>
</svg>